<?xml version="1.0" standalone="no"?><!DOCTYPE svg PUBLIC "-//W3C//DTD SVG 1.1//EN" "http://www.w3.org/Graphics/SVG/1.1/DTD/svg11.dtd"><svg t="1596258361896" class="icon" viewBox="0 0 1024 1024" version="1.1" xmlns="http://www.w3.org/2000/svg" p-id="2176" xmlns:xlink="http://www.w3.org/1999/xlink" width="200" height="200"><defs><style type="text/css"></style></defs><path d="M512 682.666667c-10.24 0-17.066667-10.24-17.066667-20.48l68.266667-477.866667c0-6.826667 10.24-13.653333 17.066667-13.653333h102.4c6.826667 0 17.066667 6.826667 17.066666 13.653333l47.786667 341.333333 54.613333-512c0-6.826667 6.826667-13.653333 17.066667-13.653333h102.4c10.24 0 17.066667 6.826667 17.066667 13.653333l68.266666 648.533334c0 10.24-6.826667 17.066667-13.653333 17.066666-10.24 0-17.066667-6.826667-20.48-13.653333L904.533333 34.133333h-71.68l-68.266666 634.88c0 10.24-6.826667 13.653333-17.066667 13.653334-6.826667 0-17.066667-6.826667-17.066667-13.653334L669.013333 204.8h-71.68l-64.853333 464.213333c-3.413333 6.826667-13.653333 13.653333-20.48 13.653334z" fill="#ffffff" p-id="2177"></path><path d="M989.866667 1024H34.133333c-10.24 0-17.066667-6.826667-17.066666-17.066667v-614.4c0-10.24 6.826667-17.066667 17.066666-17.066666h409.6c10.24 0 17.066667 6.826667 17.066667 17.066666V648.533333H989.866667c10.24 0 17.066667 6.826667 17.066666 17.066667v341.333333c0 10.24-6.826667 17.066667-17.066666 17.066667zM51.2 989.866667h921.6v-307.2H443.733333c-10.24 0-17.066667-6.826667-17.066666-17.066667V409.6h-375.466667v580.266667z" fill="#ffffff" p-id="2178"></path><path d="M68.266667 409.6s-3.413333 0 0 0c-13.653333-3.413333-17.066667-10.24-17.066667-20.48l34.133333-204.8c0-6.826667 10.24-13.653333 17.066667-13.653333h102.4c6.826667 0 17.066667 6.826667 17.066667 13.653333l34.133333 204.8c0 10.24-3.413333 17.066667-13.653333 20.48-10.24 0-17.066667-3.413333-20.48-13.653333L191.146667 204.8H116.053333l-30.72 191.146667c0 6.826667-10.24 13.653333-17.066666 13.653333zM375.466667 648.533333H102.4c-10.24 0-17.066667-6.826667-17.066667-17.066666v-170.666667c0-10.24 6.826667-17.066667 17.066667-17.066667h273.066667c10.24 0 17.066667 6.826667 17.066666 17.066667v170.666667c0 10.24-6.826667 17.066667-17.066666 17.066666z m-256-34.133333h238.933333v-136.533333h-238.933333v136.533333zM375.466667 921.6H102.4c-10.24 0-17.066667-6.826667-17.066667-17.066667v-136.533333c0-10.24 6.826667-17.066667 17.066667-17.066667h273.066667c10.24 0 17.066667 6.826667 17.066666 17.066667v136.533333c0 10.24-6.826667 17.066667-17.066666 17.066667z m-256-34.133333h238.933333v-102.4h-238.933333v102.4zM921.6 921.6h-170.666667c-10.24 0-17.066667-6.826667-17.066666-17.066667v-136.533333c0-10.24 6.826667-17.066667 17.066666-17.066667h170.666667c10.24 0 17.066667 6.826667 17.066667 17.066667v136.533333c0 10.24-6.826667 17.066667-17.066667 17.066667z m-153.6-34.133333h136.533333v-102.4h-136.533333v102.4zM648.533333 921.6h-170.666666c-10.24 0-17.066667-6.826667-17.066667-17.066667v-136.533333c0-10.24 6.826667-17.066667 17.066667-17.066667h170.666666c10.24 0 17.066667 6.826667 17.066667 17.066667v136.533333c0 10.24-6.826667 17.066667-17.066667 17.066667z m-153.6-34.133333h136.533334v-102.4h-136.533334v102.4z" fill="#ffffff" p-id="2179"></path></svg>