<?xml version="1.0" standalone="no"?><!DOCTYPE svg PUBLIC "-//W3C//DTD SVG 1.1//EN" "http://www.w3.org/Graphics/SVG/1.1/DTD/svg11.dtd"><svg t="1596022474288" class="icon" viewBox="0 0 1024 1024" version="1.1" xmlns="http://www.w3.org/2000/svg" p-id="5307" xmlns:xlink="http://www.w3.org/1999/xlink" width="200" height="200"><defs><style type="text/css"></style></defs><path d="M134.489169 3.371146C142.359011 1.093034 150.608539 0.713348 158.754517 0.83991c206.330247 0.011506 412.660494 0 618.990741 0 10.286022 0.138067 20.756135-0.632809 30.869573 1.76036 24.311371 5.315596 44.756854 24.886652 51.130967 48.933393 0.644315 3.497708 0.264629 7.075955 0.333663 10.596674v852.094562c-226.48809 0.034517-452.97618-0.011506-679.46427 0.023011-10.113438-0.092045-19.801169 6.466157-23.552 15.83173-2.634787 6.005933-1.886921 12.713708-1.921438 19.099326-0.092045 10.71173 7.409618 20.84818 17.59209 24.069753 4.774831 1.610787 9.906337 1.254112 14.865258 1.288629 235.842157-0.046022 471.684315 0.034517 707.526472-0.046022 13.415551 0.18409 25.358382-11.827775 25.220315-25.220315 0.103551-296.603326-0.023011-593.206652 0.057528-889.798472 11.55164 3.785348 22.194337 10.435596 30.35182 19.479012 10.60818 11.540135 16.809708 26.739056 18.017798 42.317662v836.654023c-1.173573 15.014831-6.845843 29.753528-16.844225 41.121079-13.081888 15.371506-33.170697 24.299865-53.328539 23.943191-247.761978 0.034517-495.523955 0.011506-743.285933 0.011505-11.678202 0.218607-23.448449-2.209079-33.838022-7.616719-22.355416-11.217978-37.508315-35.36827-37.542832-60.427505 0.057528-71.933124-0.161079-143.866247 0.115056-215.799371 29.903101 0.069034 59.806202 0.080539 89.697798 0 21.13582-0.207101 40.614831-16.510562 44.676315-37.220674 1.990472-11.459596 1.656809-23.805124-3.44018-34.470832-7.858337-17.338966-26.91164-28.349843-45.849888-27.072719-28.372854 0.046022-56.745708-0.034517-85.118562 0.034517-0.207101-47.886382-0.046022-95.78427-0.080539-143.682157 28.395865-0.011506 56.780225-0.023011 85.17609 0.011505 6.730787 0.195596 13.565124-0.529258 19.858697-3.037483 15.705169-5.764315 27.648-20.468494 29.972134-37.04809 1.369169-11.229483 0.667326-23.160809-4.797842-33.297258-7.743281-15.313978-24.460944-25.438921-41.604315-25.404405-29.534921-0.069034-59.069843 0-88.604764-0.034517-0.023011-40.212135-0.011506-80.42427 0-120.636404 29.534921-0.046022 59.069843 0.034517 88.61627-0.034517 13.749213 0.023011 27.268315-6.420135 36.02409-16.993798 7.260045-8.675236 11.137438-20.019775 10.918831-31.318292 0.529258-11.252494-2.623281-22.758112-9.526652-31.744-8.686742-11.574652-22.919191-18.788674-37.416269-18.708135-29.534921-0.023011-59.081348 0.011506-88.61627-0.011505-0.034517-36.070112 0.011506-72.140225-0.023011-108.198832-0.023011-7.800809 1.219596-15.613124 3.785348-22.988224C94.875326 26.175281 112.939146 9.192989 134.489169 3.371146m9.595685 45.309124c-8.491146 3.44018-14.393528 12.334022-14.140405 21.515505 0.011506 20.756135-0.011506 41.51227 0.011506 62.268405 14.186427 0.023011 28.372854-0.011506 42.559281 0 17.822202-0.023011 35.598382 5.269573 50.521168 15.026337 19.444494 12.587146 33.930067 32.641438 39.567821 55.123416 3.647281 14.543101 3.750831 29.88009 1.323146 44.630292-3.934921 21.204854-15.555596 40.856449-32.192719 54.582651-16.153888 13.49609-36.990562 21.204854-58.045843 21.423461-14.577618 0.126562-29.155236 0.011506-43.732854 0.069034-0.011506 9.526652-0.023011 19.064809 0 28.59146 15.325483 0.092045 30.650966-0.161079 45.976449 0.138068 28.798562 0.851416 56.550112 16.222921 72.865079 39.912989 11.586157 16.430022 17.327461 36.67991 16.706157 56.745708 0.276135 23.137798-8.456629 46.206562-24.058247 63.30391-17.764674 19.92773-44.411685 31.45636-71.104719 30.754516-13.461573-0.011506-26.923146-0.023011-40.384719 0 0.149573 17.246921-0.356674 34.516854 0.253124 51.740765 14.117393-0.28764 28.234787-0.069034 42.352179-0.115057 19.076315 0 38.07209 6.086472 53.593169 17.166382 18.501034 13.058876 31.985618 33.05564 36.979056 55.157933 3.302112 15.302472 3.279101 31.398831-0.115056 46.689798-4.901393 21.078292-17.511551 40.212135-34.839011 53.155955-14.99182 11.310022-33.481348 17.925753-52.258517 18.558562-15.348494 0.345169-30.731506-0.218607-46.068495 0.28764 0.230112 34.620404 0 69.240809 0.115057 103.861213 13.312-13.242966 31.836045-21.158831 50.670741-21.05528 211.139596-0.011506 422.279191 0.011506 633.418787-0.011506 0-269.047371 0.011506-538.106247-0.011506-807.153618-2.646292-8.813303-12.391551-14.382022-21.377438-14.163416-211.31218-0.057528-422.62436 0-633.936539-0.023011-4.912899-0.023011-10.05591-0.230112-14.646652 1.817888z" p-id="5308" fill="#e6e6e6"></path><path d="M81.804944 198.218787c25.634517-0.391191 51.280539-0.057528 76.915056-0.172585 7.35209-0.172584 14.761708 2.381663 20.238382 7.329079 13.047371 11.436584 13.001348 34.482337-0.149573 45.815371-5.177528 4.556225-12.011865 7.225528-18.938247 7.144988-24.909663 0.011506-49.819326-0.011506-74.728989 0.011506-7.214022 0.195596-14.393528-2.508225-19.74364-7.329079-13.093393-11.482607-12.932315-34.666427 0.368179-45.941932 4.46418-3.877393 10.159461-6.293573 16.038832-6.857348zM374.116674 202.867056c27.947146-0.494742 55.917303-0.069034 83.875955-0.218607 80.52782 0 161.044135 0.011506 241.56045 0 4.602247 0.034517 9.308045-0.310652 13.78373 1.035506 10.52764 2.807371 18.949753 12.10391 20.641079 22.873169 1.173573 7.950382 0.322157 16.579596-4.28009 23.379415-5.235056 8.099955-14.738697 13.139416-24.380405 13.001349-108.91218 0.011506-217.835865-0.011506-326.75955 0.011505-9.423101 0.264629-18.834697-4.314607-24.265349-12.057887-5.338607-7.191011-6.374112-16.740674-4.774831-25.346877 2.278112-11.781753 12.667685-21.377438 24.599011-22.677573zM77.697438 417.216719c3.923416-0.977978 7.996404-0.897438 12.023371-0.874427 23.402427 0.034517 46.804854-0.034517 70.195775 0.023011 9.216 0.011506 18.24791 4.728809 23.471461 12.322517 5.269573 7.35209 6.190022 17.03982 4.418157 25.715056-2.623281 12.276494-14.174921 21.941213-26.762067 22.205843-25.669034 0.069034-51.338067 0.023011-77.018607 0.023011-10.355056-0.023011-20.318921-6.316584-24.990202-15.532584C55.721708 454.897618 55.307506 447.580045 56.193438 440.722697c1.553258-11.229483 10.481618-20.905708 21.504-23.505978zM374.473348 434.394607c109.878652-0.414202 219.79182-0.034517 329.681978-0.18409 9.76827-0.494742 19.605573 4.257079 25.105258 12.380045 5.40764 7.53618 6.190022 17.488539 4.222562 26.336359-3.002966 12.541124-15.313978 21.929708-28.20027 21.58454-108.958202 0.011506-217.904899-0.011506-326.863101 0-7.283056 0.138067-14.612135-2.485213-19.996764-7.43263-12.955326-11.413573-12.874787-34.309753 0.172585-45.63128 4.395146-3.91191 10.021393-6.420135 15.877752-7.052944zM78.341753 660.675596c2.23209-0.494742 4.533213-0.632809 6.822831-0.644315 24.886652 0.023011 49.784809 0 74.671461 0 6.857348-0.069034 13.634157 2.51973 18.80018 7.006921 13.277483 11.240989 13.438562 34.378787 0.402696 45.872899-5.453663 4.970427-12.863281 7.582202-20.226876 7.421124-24.898157-0.034517-49.80782 0.046022-74.705978-0.034517-10.309034-0.080539-20.261393-6.213034-24.978696-15.383011C55.618157 698.402517 55.226966 690.670742 56.331506 683.47973c1.909933-11.102921 11.010876-20.456989 22.010247-22.804134zM369.802067 666.877124c4.705798-1.403685 9.664719-1.070022 14.508585-1.081528h314.045842c5.430652 0.034517 11.033888-0.425708 16.257439 1.415191 10.124944 3.233079 18.017798 12.518112 19.456 23.080269 0.874427 7.064449 0.333663 14.600629-3.244585 20.917214-4.947416 9.123955-15.106876 15.049348-25.496449 14.865258-108.923685 0.023011-217.858876 0-326.782562 0.011506-9.837303 0.299146-19.617079-4.75182-24.932674-13.035865-4.740315-6.995416-5.545708-15.923775-4.165034-24.081259 1.944449-10.412584 10.147955-19.283416 20.353438-22.090786z" p-id="5309" fill="#e6e6e6"></path></svg>