<?xml version="1.0" standalone="no"?><!DOCTYPE svg PUBLIC "-//W3C//DTD SVG 1.1//EN" "http://www.w3.org/Graphics/SVG/1.1/DTD/svg11.dtd"><svg t="1596264020253" class="icon" viewBox="0 0 1024 1024" version="1.1" xmlns="http://www.w3.org/2000/svg" p-id="3991" xmlns:xlink="http://www.w3.org/1999/xlink" width="200" height="200"><defs><style type="text/css"></style></defs><path d="M512 0c282.282667 0 511.886222 229.603556 512 512 0 282.339556-229.660444 512-512 512-282.396444 0-512-229.603556-512-512s229.603556-512 512-512z m0 113.777778C292.408889 113.777778 113.777778 292.408889 113.777778 512s178.631111 398.222222 398.222222 398.222222c219.477333 0 398.222222-178.688 398.222222-398.222222-0.113778-219.591111-178.744889-398.222222-398.222222-398.222222z" p-id="3992" fill="#ffffff"></path><path d="M495.104 598.698667l206.336-214.926223a44.999111 44.999111 0 0 1 50.403556-10.353777 46.478222 46.478222 0 0 1 14.791111 74.808889l-238.933334 248.888888a45.056 45.056 0 0 1-65.194666 0L326.371556 555.292444a46.705778 46.705778 0 0 1-12.060445-44.259555 45.852444 45.852444 0 0 1 32.312889-33.223111 44.828444 44.828444 0 0 1 44.600889 12.629333l103.879111 108.259556z m0 50.232889l-8.419556 8.817777a11.776 11.776 0 0 1 16.896 0l-8.476444-8.817777z" p-id="3993" fill="#ffffff"></path></svg>