<?xml version="1.0" standalone="no"?><!DOCTYPE svg PUBLIC "-//W3C//DTD SVG 1.1//EN" "http://www.w3.org/Graphics/SVG/1.1/DTD/svg11.dtd"><svg t="1596022918855" class="icon" viewBox="0 0 1024 1024" version="1.1" xmlns="http://www.w3.org/2000/svg" p-id="6490" xmlns:xlink="http://www.w3.org/1999/xlink" width="200" height="200"><defs><style type="text/css"></style></defs><path d="M872.8 96H151.2C103.1 96 64 135.2 64 183.4v445.1c0 48.2 39.1 87.4 87.2 87.4h721.6c48.1 0 87.2-39.2 87.2-87.4V183.4c0-48.2-39.1-87.4-87.2-87.4z m-721.6 63.6h721.6c13.1 0 23.8 10.7 23.8 23.8v246.4H696.2L569.9 224 369.6 496.4l-66.5-66.6H127.4V183.4c0-13.1 10.7-23.8 23.8-23.8z m721.6 492.8H151.2c-13.1 0-23.8-10.7-23.8-23.8V493.4h149.4l100 100.3L565 337.6l95.6 155.8h235.8v135.1c0.2 13.2-10.5 23.9-23.6 23.9zM179 864.4h666.1V928H179z" fill="#e6e6e6" p-id="6491"></path></svg>