<?xml version="1.0" standalone="no"?><!DOCTYPE svg PUBLIC "-//W3C//DTD SVG 1.1//EN" "http://www.w3.org/Graphics/SVG/1.1/DTD/svg11.dtd"><svg t="1597051831600" class="icon" viewBox="0 0 1024 1024" version="1.1" xmlns="http://www.w3.org/2000/svg" p-id="2261" xmlns:xlink="http://www.w3.org/1999/xlink" width="200" height="200"><defs><style type="text/css"></style></defs><path d="M694.857143 365.714286h-512c-21.942857 0-36.571429 14.628571-36.571429 36.571428s14.628571 36.571429 36.571429 36.571429h512c21.942857 0 36.571429-14.628571 36.571428-36.571429S716.8 365.714286 694.857143 365.714286z m-219.428572 219.428571h-292.571428c-21.942857 0-36.571429 14.628571-36.571429 36.571429s14.628571 36.571429 36.571429 36.571428h292.571428c21.942857 0 36.571429-14.628571 36.571429-36.571428S497.371429 585.142857 475.428571 585.142857z m475.428572 256c0 21.942857-14.628571 36.571429-36.571429 36.571429h-804.571428c-21.942857 0-36.571429-14.628571-36.571429-36.571429v-658.285714c0-21.942857 14.628571-36.571429 36.571429-36.571429H292.571429v36.571429c0 21.942857 14.628571 36.571429 36.571428 36.571428s36.571429-14.628571 36.571429-36.571428V146.285714h292.571428v36.571429c0 21.942857 14.628571 36.571429 36.571429 36.571428s36.571429-14.628571 36.571428-36.571428V146.285714h182.857143c21.942857 0 36.571429 14.628571 36.571429 36.571429v658.285714zM914.285714 73.142857H731.428571V36.571429c0-21.942857-14.628571-36.571429-36.571428-36.571429S658.285714 14.628571 658.285714 36.571429V73.142857H365.714286V36.571429c0-21.942857-14.628571-36.571429-36.571429-36.571429S292.571429 14.628571 292.571429 36.571429V73.142857H109.714286C51.2 73.142857 0 124.342857 0 182.857143v658.285714c0 58.514286 51.2 109.714286 109.714286 109.714286h804.571428c58.514286 0 109.714286-51.2 109.714286-109.714286v-658.285714c0-58.514286-51.2-109.714286-109.714286-109.714286z" p-id="2262" fill="#ffffff"></path></svg>